<svg width="18" height="20" viewBox="0 0 18 20" fill="none" xmlns="http://www.w3.org/2000/svg">
<path d="M14.864 14.8636L13.677 16.0376C12.802 16.8956 11.667 17.9996 10.271 19.3496C9.85143 19.7552 9.29063 19.982 8.707 19.982C8.12337 19.982 7.56258 19.7552 7.143 19.3496L3.652 15.9536C3.212 15.5226 2.846 15.1596 2.55 14.8636C1.33237 13.6458 0.503172 12.0944 0.167261 10.4054C-0.16865 8.71644 0.0038141 6.96579 0.662845 5.37483C1.32188 3.78387 2.43787 2.42406 3.86972 1.46735C5.30156 0.510641 6.98495 0 8.707 0C10.4291 0 12.1124 0.510641 13.5443 1.46735C14.9761 2.42406 16.0921 3.78387 16.7512 5.37483C17.4102 6.96579 17.5827 8.71644 17.2467 10.4054C16.9108 12.0944 16.0816 13.6458 14.864 14.8636ZM11.207 8.98156C11.207 8.31852 10.9436 7.68263 10.4748 7.21379C10.0059 6.74495 9.37004 6.48156 8.707 6.48156C8.04396 6.48156 7.40808 6.74495 6.93924 7.21379C6.4704 7.68263 6.207 8.31852 6.207 8.98156C6.207 9.6446 6.4704 10.2805 6.93924 10.7493C7.40808 11.2182 8.04396 11.4816 8.707 11.4816C9.37004 11.4816 10.0059 11.2182 10.4748 10.7493C10.9436 10.2805 11.207 9.6446 11.207 8.98156Z" fill="#1A9CDA"/>
</svg>
