<svg width="15" height="16" viewBox="0 0 15 16" fill="none" xmlns="http://www.w3.org/2000/svg">
<path d="M10.7204 10.1978H10.0429L9.80274 9.96959C10.6723 8.97546 11.1502 7.70629 11.1492 6.39369C11.1492 5.30691 10.8223 4.24453 10.2097 3.3409C9.59719 2.43727 8.72655 1.73297 7.70793 1.31708C6.6893 0.901185 5.56843 0.792367 4.48706 1.00439C3.40569 1.21641 2.41239 1.73975 1.63277 2.50822C0.853145 3.27669 0.322215 4.25579 0.107117 5.32169C-0.107981 6.3876 0.00241539 7.49243 0.424345 8.49649C0.846274 9.50055 1.56079 10.3587 2.47753 10.9625C3.39427 11.5663 4.47206 11.8886 5.57462 11.8886C6.9554 11.8886 8.2247 11.3898 9.2024 10.5614L9.43396 10.7981V11.4659L13.7221 15.6843L15 14.4247L10.7204 10.1978ZM5.57462 10.1978C3.43911 10.1978 1.71527 8.49866 1.71527 6.39369C1.71527 4.28873 3.43911 2.58954 5.57462 2.58954C7.71012 2.58954 9.43396 4.28873 9.43396 6.39369C9.43396 8.49866 7.71012 10.1978 5.57462 10.1978Z" fill="#777777"/>
</svg>
