<svg width="64" height="64" viewBox="0 0 64 64" fill="none" xmlns="http://www.w3.org/2000/svg">
<circle cx="32" cy="32" r="31" stroke="#1A9CDA" stroke-width="2"/>
<path d="M24.4992 17.4198C26.3966 18.8034 27.8328 20.7474 29.0557 22.5336L30.0142 23.9428C30.3118 24.3778 30.448 24.9032 30.3992 25.428C30.3503 25.9528 30.1195 26.4441 29.7468 26.8167L27.7096 28.8538L27.9245 29.3105C28.4503 30.3757 29.3577 31.9095 30.7232 33.2766C31.6662 34.2053 32.7293 35.0036 33.8841 35.6502L34.4354 35.9462L34.9267 36.1896L35.146 36.2902L37.1816 34.2531C37.5557 33.8795 38.0492 33.6491 38.5758 33.6022C39.1024 33.5552 39.6288 33.6947 40.0631 33.9962L41.5864 35.0523C43.317 36.2692 45.1243 37.6558 46.529 39.4556C46.7718 39.7679 46.9262 40.1397 46.9762 40.5322C47.0261 40.9246 46.9697 41.3233 46.8129 41.6865C45.5555 44.6205 42.3736 47.1188 39.064 46.9956L38.6133 46.9716L38.2633 46.9415L37.8757 46.8965L37.4536 46.8394L36.9954 46.7628L36.5056 46.6666L35.9858 46.5509L35.436 46.4097L34.8576 46.2445L34.2537 46.0492C31.4804 45.1087 27.9605 43.2609 24.349 39.6494C20.7389 36.0393 18.8911 32.5194 17.9507 29.7462L17.7554 29.1423L17.5901 28.5639L17.4489 28.014L17.3317 27.4942C17.2979 27.3314 17.2663 27.1682 17.2371 27.0045L17.162 26.5463L17.1019 26.1241L17.0583 25.7366L17.0283 25.3865L17.0042 24.9358C16.8825 21.6368 19.4079 18.4324 22.3284 17.1809C22.6799 17.0292 23.0648 16.9714 23.4454 17.0132C23.826 17.0551 24.1891 17.1952 24.4992 17.4198ZM23.1066 20.136C21.4961 20.9773 19.9367 22.9002 20.0073 24.8247L20.0374 25.3174L20.0704 25.6254L20.114 25.9709L20.1741 26.351L20.2507 26.7671L20.3483 27.2148L20.4685 27.6956L20.6128 28.2048L20.784 28.7427C20.8471 28.9259 20.9132 29.1137 20.9853 29.306L21.2167 29.8949L21.4811 30.5064C22.4245 32.5825 23.9629 35.0133 26.4762 37.5251C28.9881 40.037 31.4188 41.5768 33.495 42.5203L34.1064 42.7847L34.6953 43.016C34.8876 43.0881 35.0754 43.1542 35.2587 43.2173L35.7965 43.3886L36.3073 43.5328L36.7865 43.653L37.2342 43.7507L37.6504 43.8273L38.0319 43.8874L38.3775 43.9324L38.6839 43.9625L39.1767 43.9925C41.0756 44.0631 43.0136 42.5128 43.8519 40.9233C42.7822 39.6689 41.4542 38.6398 39.9894 37.6032L38.8657 36.8205L38.5803 37.1195L37.9704 37.785L37.6474 38.1245C36.767 39.0214 35.7394 39.7831 34.5075 39.2858L34.168 39.1431L33.7534 38.9568L33.522 38.8471L33.0143 38.5933L32.4569 38.2928C31.0464 37.5079 29.7491 36.535 28.6005 35.4009C27.4664 34.2522 26.4935 32.9549 25.7086 31.5445L25.4081 30.9886L25.1527 30.4793L24.8583 29.8333L24.714 29.4908C24.2468 28.3355 24.8898 27.3605 25.7116 26.5162L26.0481 26.1857L26.8849 25.4151L27.1853 25.1296L26.4747 24.0885C25.4186 22.5562 24.3865 21.1741 23.1051 20.1345L23.1066 20.136ZM36.7219 22.8206L36.8962 22.8401C37.9897 23.033 38.9941 23.5671 39.7654 24.366C40.5367 25.1648 41.0353 26.1873 41.1898 27.2869C41.2448 27.6673 41.1521 28.0543 40.9305 28.3683C40.7089 28.6823 40.3754 28.8995 39.9986 28.9751C39.6218 29.0507 39.2304 28.9791 38.9048 28.7749C38.5792 28.5707 38.3443 28.2495 38.2483 27.8773L38.2137 27.7046C38.1533 27.2736 37.9693 26.8693 37.6841 26.5406C37.3988 26.2119 37.0245 25.9728 36.6063 25.8522L36.3734 25.7997C35.9962 25.7328 35.6587 25.5243 35.4301 25.2169C35.2015 24.9095 35.0989 24.5264 35.1435 24.1458C35.188 23.7653 35.3762 23.4162 35.6696 23.1698C35.963 22.9235 36.3395 22.7986 36.7219 22.8206ZM36.7325 18.2536C39.1231 18.2536 41.4158 19.2033 43.1062 20.8937C44.7966 22.5841 45.7463 24.8768 45.7463 27.2674C45.7458 27.6503 45.5992 28.0186 45.3364 28.297C45.0735 28.5755 44.7143 28.743 44.332 28.7655C43.9498 28.7879 43.5734 28.6635 43.2797 28.4178C42.9861 28.172 42.7974 27.8234 42.7522 27.4432L42.7417 27.2674C42.7422 25.7417 42.1621 24.273 41.1192 23.1594C40.0762 22.0458 38.6485 21.3709 37.1261 21.2717L36.7325 21.2582C36.334 21.2582 35.9519 21.0999 35.6702 20.8182C35.3884 20.5364 35.2302 20.1543 35.2302 19.7559C35.2302 19.3575 35.3884 18.9753 35.6702 18.6936C35.9519 18.4119 36.334 18.2536 36.7325 18.2536Z" fill="#1A9CDA"/>
</svg>
