<svg width="16" height="16" viewBox="0 0 16 16" fill="none" xmlns="http://www.w3.org/2000/svg">
<path d="M15.0006 6.48606L11.9248 9.7845L12.8992 14.188C12.926 14.3085 12.9121 14.4345 12.8598 14.5463C12.729 14.827 12.3942 14.9491 12.1121 14.8193L8.02505 12.9124L4.13765 15.1989C4.03066 15.2621 3.90661 15.2873 3.78443 15.2726C3.63623 15.2543 3.50138 15.1779 3.4095 15.0601C3.31763 14.9424 3.27624 14.7931 3.29443 14.6448L3.84361 10.1686L0.467034 7.17805C0.388376 7.10857 0.330757 7.01845 0.300714 6.91789C0.27067 6.81734 0.269404 6.71037 0.297057 6.60913C0.32471 6.50789 0.380176 6.41643 0.457166 6.34511C0.534157 6.27379 0.629591 6.22547 0.732646 6.20562L5.15992 5.34518L6.9608 1.21022C7.00952 1.09678 7.09616 1.00251 7.20397 0.943075C7.47556 0.792842 7.81746 0.890416 7.9677 1.16201L10.154 5.10719L14.6428 5.54269C14.7652 5.55489 14.8809 5.60636 14.9716 5.69135C15.2011 5.90162 15.212 6.25793 15.0006 6.48606Z" fill="#FF7C1D"/>
</svg>
