<svg width="57" height="57" viewBox="0 0 57 57" fill="none" xmlns="http://www.w3.org/2000/svg">
<path fill-rule="evenodd" clip-rule="evenodd" d="M0 5.7C0 4.18827 0.600534 2.73845 1.66949 1.66949C2.73845 0.600534 4.18827 0 5.7 0L51.3 0C52.8117 0 54.2616 0.600534 55.3305 1.66949C56.3995 2.73845 57 4.18827 57 5.7V51.3C57 52.2413 56.7677 53.168 56.3236 53.998C55.8358 54.9058 55.1111 55.6643 54.2265 56.1929C53.3419 56.7215 52.3305 57.0005 51.3 57H5.7C4.18827 57 2.73845 56.3995 1.66949 55.3305C0.600534 54.2616 0 52.8117 0 51.3L0 5.7ZM18.43 11.9396L17.1 10.6096L3.8 23.9096V5.7C3.8 5.19609 4.00018 4.71282 4.3565 4.3565C4.71282 4.00018 5.19609 3.8 5.7 3.8H51.3C51.8039 3.8 52.2872 4.00018 52.6435 4.3565C52.9998 4.71282 53.2 5.19609 53.2 5.7V38H44.4866L18.4452 11.9548L18.43 11.9396Z" fill="#00ADDF"/>
</svg>
