<svg width="24" height="25" viewBox="0 0 24 25" fill="none" xmlns="http://www.w3.org/2000/svg">
<path d="M22.6931 7.66741C22.5274 7.50075 22.3304 7.36858 22.1133 7.27855C21.8963 7.18851 21.6636 7.14239 21.4286 7.14286H17.8571V6.25C17.8571 4.5924 17.1987 3.00268 16.0266 1.83058C14.8545 0.65848 13.2647 0 11.6071 0C9.94954 0 8.35983 0.65848 7.18773 1.83058C6.01562 3.00268 5.35714 4.5924 5.35714 6.25V7.14286H1.78571C1.31211 7.14286 0.85791 7.33099 0.523023 7.66588C0.188137 8.00077 0 8.45497 0 8.92857V20.9821C0 23.1585 1.84152 25 4.01786 25H19.1964C20.2492 25.0003 21.2602 24.5887 22.0134 23.8532C22.3924 23.4916 22.6942 23.057 22.9006 22.5755C23.107 22.094 23.2137 21.5757 23.2143 21.0519V8.92857C23.215 8.69435 23.1693 8.46231 23.0798 8.24585C22.9904 8.02939 22.8589 7.83279 22.6931 7.66741ZM15.1786 16.9643H12.5V19.6429C12.5 19.8797 12.4059 20.1068 12.2385 20.2742C12.071 20.4416 11.8439 20.5357 11.6071 20.5357C11.3703 20.5357 11.1432 20.4416 10.9758 20.2742C10.8084 20.1068 10.7143 19.8797 10.7143 19.6429V16.9643H8.03571C7.79891 16.9643 7.57181 16.8702 7.40437 16.7028C7.23693 16.5353 7.14286 16.3082 7.14286 16.0714C7.14286 15.8346 7.23693 15.6075 7.40437 15.4401C7.57181 15.2726 7.79891 15.1786 8.03571 15.1786H10.7143V12.5C10.7143 12.2632 10.8084 12.0361 10.9758 11.8687C11.1432 11.7012 11.3703 11.6071 11.6071 11.6071C11.8439 11.6071 12.071 11.7012 12.2385 11.8687C12.4059 12.0361 12.5 12.2632 12.5 12.5V15.1786H15.1786C15.4154 15.1786 15.6425 15.2726 15.8099 15.4401C15.9774 15.6075 16.0714 15.8346 16.0714 16.0714C16.0714 16.3082 15.9774 16.5353 15.8099 16.7028C15.6425 16.8702 15.4154 16.9643 15.1786 16.9643ZM16.0714 7.14286H7.14286V6.25C7.14286 5.066 7.6132 3.93049 8.45042 3.09327C9.28763 2.25606 10.4231 1.78571 11.6071 1.78571C12.7911 1.78571 13.9267 2.25606 14.7639 3.09327C15.6011 3.93049 16.0714 5.066 16.0714 6.25V7.14286Z" fill="white"/>
</svg>
